<svg id="Layer_1" data-name="Layer 1" xmlns="http://www.w3.org/2000/svg" xmlns:xlink="http://www.w3.org/1999/xlink" viewBox="0 0 105.6 31.96"><defs><style>.cls-1,.cls-3,.cls-4,.cls-6{isolation:isolate;}.cls-1{font-size:19.92px;fill:#39a4dd;}.cls-1,.cls-4,.cls-6{font-family:Ubuntu;}.cls-2{letter-spacing:-0.01em;}.cls-4,.cls-6{font-size:10.2px;}.cls-4{fill:#9a57b4;}.cls-5{letter-spacing:-0.02em;}.cls-7{letter-spacing:-0.01em;}.cls-8{fill:#fff;}.cls-9{fill:url(#linear-gradient);}.cls-10{fill:url(#linear-gradient-2);}.cls-11{fill:url(#linear-gradient-3);}.cls-12{fill:url(#linear-gradient-4);}.cls-13{fill:none;}.cls-14{fill:url(#linear-gradient-5);}.cls-15{fill:url(#linear-gradient-6);}</style><linearGradient id="linear-gradient" x1="8.48" y1="29.07" x2="30.08" y2="29.07" gradientTransform="matrix(1, 0, 0, -1, 0, 34)" gradientUnits="userSpaceOnUse"><stop offset="0" stop-color="#39a4dd"/><stop offset="1" stop-color="#9a57b4"/></linearGradient><linearGradient id="linear-gradient-2" x1="6.4" y1="3.74" x2="18.9" y2="3.74" xlink:href="#linear-gradient"/><linearGradient id="linear-gradient-3" x1="0.11" y1="10.96" x2="29.6" y2="10.96" xlink:href="#linear-gradient"/><linearGradient id="linear-gradient-4" x1="0.6" y1="21.3" x2="31.9" y2="21.3" xlink:href="#linear-gradient"/><linearGradient id="linear-gradient-5" x1="23.51" y1="5.52" x2="24.51" y2="5.52" xlink:href="#linear-gradient"/><linearGradient id="linear-gradient-6" x1="23.51" y1="5.6" x2="24.64" y2="5.6" xlink:href="#linear-gradient"/></defs><text class="cls-1" transform="translate(36.92 15.96)">Rena<tspan class="cls-2" x="45.49" y="0">t</tspan><tspan x="53.22" y="0">o</tspan></text><g class="cls-3"><text class="cls-4" transform="translate(33.95 29.95)"><tspan class="cls-5">W</tspan><tspan x="9.25" y="0">eb</tspan></text><text class="cls-6" transform="translate(55.15 29.95)"> </text><text class="cls-4" transform="translate(57.5 29.95)">De<tspan class="cls-7" x="12.98" y="0">v</tspan><tspan x="17.96" y="0">eloper</tspan></text></g><path class="cls-8" d="M24.9,5.77C22.39,5.84,15.31,5.62,12,4c-2.92-1.44-1.8-2.57-1-3.1a16.19,16.19,0,0,1,5-.79A15.87,15.87,0,0,1,23.59,2l.06,0c-.68.44-2.85.8-5.77.11-2.42-.56-2.2-1.24-2-1.52-.78,0-4.33.16-2.38,2.23C15.28,4.74,22.16,5.59,24.9,5.77Z"/><path class="cls-8" d="M26.71,4.22a51,51,0,0,1-5.36-.12C24.18,4,24.87,3.28,25,2.89A16.63,16.63,0,0,1,26.71,4.22Z"/><path class="cls-8" d="M31.27,11.51c-1.1.92-10.5,1.16-19.14-1.88C4.93,7.08,5.52,4.51,6,3.59H6A16.4,16.4,0,0,1,9.38,1.51c-1,.87-2.16,2.76,2.47,5.08,6,3,17,3.12,18.22,2A16,16,0,0,1,31.27,11.51Z"/><path class="cls-9" d="M26.71,4.22a51,51,0,0,1-5.36-.12C24.18,4,24.87,3.28,25,2.89h0c-.45-.31-.91-.59-1.39-.86-.68.44-2.84.8-5.77.11-2.42-.56-2.19-1.24-2-1.52-.79,0-4.34.16-2.39,2.23,1.76,1.89,8.64,2.74,11.38,2.92C22.39,5.84,15.31,5.62,12,4c-2.92-1.44-1.8-2.57-1-3.1-.55.19-1.1.4-1.63.64h0c-1,.87-2.16,2.75,2.47,5.08,6.05,3,17,3.11,18.22,2A16.28,16.28,0,0,0,26.71,4.22ZM14.37,1c-.26.22-.67.76.32,1.43C13.36,1.78,14,1.25,14.37,1Z"/><path class="cls-8" d="M27.47,17.37c-2.69.31-10,.12-18.21-2C2.32,13.59,1.36,11,1.26,10a16.21,16.21,0,0,1,2-3.5c-.26,1-.31,2.82,2.28,4.74C9.14,14,17.31,16.87,27.47,17.37Z"/><path class="cls-8" d="M31,21.2a16.38,16.38,0,0,1-1.43,3C27,24.87,18,25,9.48,22,2.69,19.63.7,16.85.12,15.4a15.28,15.28,0,0,1,.47-3.33c.3,1.33,2.08,5.48,12.62,8C25.19,22.93,30,21.48,31,21.2Z"/><path class="cls-8" d="M22.13,30.65a16,16,0,0,1-3.22,1h0a31.6,31.6,0,0,1-12.5-3h0a15.57,15.57,0,0,1-2.79-2.71,25.55,25.55,0,0,0,4.62,2.46A40,40,0,0,0,22.13,30.65Z"/><path class="cls-10" d="M18.9,31.61a15.41,15.41,0,0,1-2.9.26,15.8,15.8,0,0,1-9.6-3.22A31.83,31.83,0,0,0,18.9,31.61Z"/><path class="cls-8" d="M28.44,25.87a14.88,14.88,0,0,1-1.05,1.19,25.47,25.47,0,0,1-5-.09A17.44,17.44,0,0,0,28.44,25.87Z"/><path class="cls-11" d="M9.48,22C2.69,19.63.7,16.85.12,15.4c0,.19,0,.38,0,.57a16.12,16.12,0,0,0,.6,4.37h0a12,12,0,0,0,4.46,3.84C8.79,26.1,15.43,28,23.51,28.44A50.58,50.58,0,0,1,9.07,27a15.45,15.45,0,0,1-7-3.44,15.6,15.6,0,0,0,1.59,2.4h0a25.55,25.55,0,0,0,4.62,2.46,40.05,40.05,0,0,0,13.91,2.26,15.9,15.9,0,0,0,5.26-3.58,26.32,26.32,0,0,1-5-.1,17.77,17.77,0,0,0,6-1.09h0c.41-.53.79-1.08,1.15-1.65C27,24.87,18,25,9.48,22ZM.7,19.18c.6.78,2.85,3.31,8.1,5.4C3.35,22.82,1.31,20.18.7,19.18Z"/><path class="cls-12" d="M31.9,16A15.9,15.9,0,0,1,31,21.2h0c-1,.28-5.84,1.73-17.81-1.13C2.67,17.55.89,13.4.6,12.07A14,14,0,0,1,1.27,10c.1,1,1.06,3.57,8,5.36,8.22,2.11,15.52,2.29,18.21,2-10.16-.5-18.33-3.4-22-6.11C2.92,9.34,3,7.46,3.23,6.52h0a3.4,3.4,0,0,1,.23-.3h0A16.4,16.4,0,0,1,6,3.59c-.52.92-1.11,3.49,6.09,6,8.64,3,18,2.8,19.14,1.88a15,15,0,0,1,.41,1.79c-.09.24-1.28,2.56-13.12,1,4.53,1.23,12.91,1,13.32,1C31.9,15.5,31.9,15.74,31.9,16Z"/><path class="cls-8" d="M31.89,15.27c-.42,0-8.8.24-13.32-1,11.83,1.58,13-.74,13.11-1A18.44,18.44,0,0,1,31.89,15.27Z"/><path class="cls-13" d="M3.47,6.18l0,0"/><path class="cls-13" d="M32.43,13.27v0"/><path class="cls-8" d="M23.51,28.45A50.58,50.58,0,0,1,9.07,27a15.56,15.56,0,0,1-7-3.44H2A16,16,0,0,1,.71,20.34a12,12,0,0,0,4.46,3.84C8.79,26.1,15.43,28,23.51,28.45Z"/><path class="cls-14" d="M24.51,28.5c-.34,0-.67,0-1-.05Z"/><path class="cls-15" d="M24.65,28.36l-1.14.09Z"/><path class="cls-8" d="M8.8,24.59c-5.46-1.77-7.5-4.4-8.1-5.4C1.3,20,3.55,22.49,8.8,24.59Z"/><path class="cls-8" d="M14.69,2.47C13.36,1.78,14,1.26,14.37,1,14.11,1.26,13.7,1.8,14.69,2.47Z"/></svg>